<svg xmlns="http://www.w3.org/2000/svg" width="1200" height="650" viewBox="0 0 1200 650">
<rect width="100%" height="100%" fill="#f7f7f7"/>
<rect x="20" y="20" width="1160" height="610" fill="none" stroke="#333" stroke-width="3"/>
<rect x="20" y="20" width="1160" height="70" fill="#e9e9e9" stroke="#333" stroke-width="2"/>
<text x="45" y="63" font-family="Arial" font-size="18" font-weight="700">SCREENSHOT PLACEHOLDER</text>
<text x="350" y="63" font-family="Arial" font-size="18">Docker/local dashboard</text>
<text x="45" y="120" font-family="Arial" font-size="15" fill="#555">Show localhost:3000 after Docker/local start.</text>
<rect x="50" y="155" width="210" height="425" fill="#eee" stroke="#aaa" stroke-width="2"/>
<text x="75" y="185" font-family="Arial" font-size="15">Flowise sidebar</text>
<rect x="290" y="155" width="850" height="425" fill="#fff" stroke="#aaa" stroke-width="2"/>
<rect x="330" y="345" width="135" height="70" rx="10" fill="#f2f2f2" stroke="#333" stroke-width="2"/>
<text x="345" y="387" font-family="Arial" font-size="14">Local</text>
<line x1="465" y1="380" x2="500" y2="380" stroke="#333" stroke-width="2"/>
<polygon points="500,380 488,373 488,387" fill="#333"/>
<rect x="500" y="345" width="135" height="70" rx="10" fill="#f2f2f2" stroke="#333" stroke-width="2"/>
<text x="515" y="387" font-family="Arial" font-size="14">Chatflows</text>
<line x1="635" y1="380" x2="670" y2="380" stroke="#333" stroke-width="2"/>
<polygon points="670,380 658,373 658,387" fill="#333"/>
<rect x="670" y="345" width="135" height="70" rx="10" fill="#f2f2f2" stroke="#333" stroke-width="2"/>
<text x="685" y="387" font-family="Arial" font-size="14">Settings</text>
<text x="310" y="560" font-family="Arial" font-size="14" fill="#555">Replace with real screenshot. Blur/crop secrets, private URLs, account details and workspace names.</text>
</svg>
